P3
# Este é um comentário
4 3
255
255   0   0   0 255   0   0   0 255   0   0   0
 0   255  0   0 255   0   0   0 255   0   0   0
255   0   0   0 255   0   0   0 255   0   0   0
